<?xml version="1.0" encoding="UTF-8"?>
<svg id="Calque_1" data-name="Calque 1" xmlns="http://www.w3.org/2000/svg" viewBox="0 0 11.89 15.71">
  <defs>
    <style>
      .cls-1 {
        fill: #fff;
      }

      .cls-1, .cls-2 {
        stroke-width: 0px;
      }

      .cls-2 {
        fill: #1d1d1b;
      }
    </style>
  </defs>
  <polygon class="cls-1" points="11.89 7.05 11.89 13.71 9.81 14.18 9.51 14.18 9.51 14.25 7.13 14.8 7.13 12.51 9.51 11.97 9.51 9.48 9.76 9.43 0 9.43 0 2.33 .16 2.29 1.17 2.04 1.18 2.04 2.38 1.76 2.38 7.05 9.51 7.05 9.51 7.1 9.73 7.05 11.89 7.05"/>
  <line class="cls-2" x1="9.92" y1="2.29" x2="9.51" y2="2.39"/>
  <polygon class="cls-1" points="5.52 10.4 5.52 15.17 3.14 15.71 3.14 10.95 5.52 10.4"/>
  <polygon class="cls-1" points="10.28 0 10.28 2.26 8.31 2.71 7.9 2.71 7.9 2.81 5.52 3.35 3.14 3.9 3.14 1.64 5.52 1.09 5.8 1.03 5.8 1.03 7.9 .55 8.81 .34 10.28 0"/>
</svg>